# xmcd
#
# Track frame offsets:
#	150
#	27007
#	70937
#	97858
#	125325
#	153767
#	176006
#	205752
#	220040
#	272320
#
# Disc length: 4037 seconds
#
# Revision: 1
# Processed by: cddbd v1.5.2PL0 Copyright (c) Steve Scherf et al.
# Submitted via: audiograbber 1.83.01
#
DISCID=770fc30a
DTITLE=Grateful Dead - 92-05-30 Sam Boyd Silver Bowl, Las Vegas NV
DYEAR=1900
DGENRE=
TTITLE0=Jack Straw
TTITLE1=Sugaree
TTITLE2=Wang Dang Doodle
TTITLE3=High Time
TTITLE4=Maggie's Farm
TTITLE5=Cumberland Blues
TTITLE6=Cassidy
TTITLE7=Don't Ease Me In
TTITLE8=Eyes Of The World
TTITLE9=Way To Go Home
EXTD=
EXTT0=
EXTT1=
EXTT2=
EXTT3=
EXTT4=
EXTT5=
EXTT6=
EXTT7=
EXTT8=
EXTT9=
PLAYORDER=
